<svg width="50" height="50" viewBox="0 0 50 50" fill="none" xmlns="http://www.w3.org/2000/svg">
<g clip-path="url(#clip0_103_15)">
<path d="M37.3396 20.6418V46.1172H14.2701V15.2045H31.0798L37.3396 20.6418Z" fill="white"/>
<path d="M41.7134 16.2687V41.7433H18.644V10.8306H35.4537L41.7134 16.2687Z" fill="white"/>
<path d="M41.7134 16.2687H35.4537V10.8306L41.7134 16.2687Z" fill="#08B3E5"/>
<path d="M37.3396 20.6418V46.1172H14.2701V15.2045H31.0798L37.3396 20.6418Z" fill="white"/>
<path d="M37.3396 20.6418H31.0798V15.2045L37.3396 20.6418Z" fill="#08B3E5"/>
<path d="M25.4604 35.5873C28.0286 35.5873 30.1104 33.5054 30.1104 30.9373C30.1104 28.3692 28.0286 26.2873 25.4604 26.2873C22.8923 26.2873 20.8104 28.3692 20.8104 30.9373C20.8104 33.5054 22.8923 35.5873 25.4604 35.5873Z" fill="#08B3E5"/>
<path d="M25.4604 32.7455C26.4591 32.7455 27.2687 31.936 27.2687 30.9373C27.2687 29.9387 26.4591 29.1291 25.4604 29.1291C24.4618 29.1291 23.6522 29.9387 23.6522 30.9373C23.6522 31.936 24.4618 32.7455 25.4604 32.7455Z" fill="white"/>
<path d="M8.12463 41.0627C10.2245 41.0627 11.9269 39.3604 11.9269 37.2604C11.9269 35.1605 10.2245 33.4582 8.12463 33.4582C6.02471 33.4582 4.32239 35.1605 4.32239 37.2604C4.32239 39.3604 6.02471 41.0627 8.12463 41.0627Z" fill="white"/>
<path d="M12.4209 26.0269C14.5208 26.0269 16.2231 24.3246 16.2231 22.2246C16.2231 20.1247 14.5208 18.4224 12.4209 18.4224C10.321 18.4224 8.61866 20.1247 8.61866 22.2246C8.61866 24.3246 10.321 26.0269 12.4209 26.0269Z" fill="white"/>
<path d="M12.4209 23.5955C13.178 23.5955 13.7918 22.9817 13.7918 22.2246C13.7918 21.4675 13.178 20.8537 12.4209 20.8537C11.6638 20.8537 11.05 21.4675 11.05 22.2246C11.05 22.9817 11.6638 23.5955 12.4209 23.5955Z" fill="#08B3E5"/>
<path d="M8.12463 38.6313C8.88175 38.6313 9.49552 38.0176 9.49552 37.2605C9.49552 36.5033 8.88175 35.8896 8.12463 35.8896C7.3675 35.8896 6.75373 36.5033 6.75373 37.2605C6.75373 38.0176 7.3675 38.6313 8.12463 38.6313Z" fill="#08B3E5"/>
<path d="M5.08221 12.6209C5.18934 12.4446 5.13323 12.215 4.95723 12.1079C4.78086 12.0022 4.55166 12.0576 4.44453 12.2332C0.93692 18.0044 -0.0666025 24.9599 1.69121 31.3163C1.74723 31.5181 1.95632 31.6319 2.15034 31.5764C2.34893 31.5218 2.46553 31.3163 2.41051 31.118C0.707353 24.9584 1.681 18.2172 5.08221 12.6209ZM21.671 1.68489C21.6867 1.68489 21.7031 1.68416 21.7191 1.68197C22.6753 1.55807 23.6489 1.49467 24.6124 1.49248C24.8186 1.49175 24.9851 1.32487 24.9848 1.11862C24.9844 0.912373 24.8175 0.746216 24.6116 0.746216C23.6165 0.748402 22.6108 0.813992 21.6236 0.941529C21.4192 0.967768 21.2749 1.15506 21.3012 1.35985C21.3256 1.54788 21.4863 1.68489 21.671 1.68489ZM27.8955 1.7155C34.2045 2.59222 39.9903 5.99561 43.7694 11.0533C43.8931 11.2195 44.1275 11.2521 44.2916 11.1291C44.4566 11.006 44.4905 10.772 44.367 10.6073C40.4695 5.39072 34.5033 1.8802 27.9983 0.976514C27.7924 0.951738 27.6054 1.0902 27.5774 1.29499C27.549 1.49905 27.6915 1.68707 27.8955 1.7155ZM49.15 24.6443C49.1452 24.4395 49.0006 24.2704 48.7684 24.2799C48.5622 24.285 48.399 24.4556 48.4037 24.6618C48.5305 30.1859 46.7647 35.4689 43.4316 39.5376C43.1143 39.923 43.7009 40.3879 44.0088 40.0099C47.4548 35.8041 49.2808 30.347 49.15 24.6443ZM35.731 48.5074H22.1648C21.9585 48.5074 21.7916 48.6743 21.7916 48.8806C21.7916 49.0868 21.9585 49.2537 22.1648 49.2537H35.731C35.9372 49.2537 36.1041 49.0868 36.1041 48.8806C36.1041 48.6743 35.9372 48.5074 35.731 48.5074ZM20.0094 48.5074H17.4645C17.2583 48.5074 17.0914 48.6743 17.0914 48.8806C17.0914 49.0868 17.2583 49.2537 17.4645 49.2537H20.0094C20.2157 49.2537 20.3825 49.0868 20.3825 48.8806C20.3825 48.6743 20.2156 48.5074 20.0094 48.5074Z" fill="#1E1E1E"/>
<path d="M25.1317 3.57971C13.3779 3.57971 3.81823 13.1395 3.81823 24.8932C3.81823 28.0723 4.51972 31.0947 5.78092 33.8111C4.67645 34.5648 3.95255 35.826 3.95255 37.2589C3.95255 39.5649 5.82569 41.4379 8.12421 41.4379C9.08689 41.4379 9.98242 41.1096 10.6914 40.5499C11.6839 41.4678 12.751 42.2813 13.9003 42.9902V46.117C13.9003 46.326 14.0645 46.4902 14.2735 46.4902H37.3406C37.5496 46.4902 37.7137 46.326 37.7137 46.117V42.1171H41.7137C41.9227 42.1171 42.0869 41.9529 42.0869 41.744V37.7738C44.8182 34.1917 46.4376 29.729 46.4376 24.8932C46.4376 13.1395 36.8779 3.57971 25.1317 3.57971ZM8.12421 40.6916C6.23613 40.6916 4.69882 39.1544 4.69882 37.2589C4.69882 35.2259 6.48507 33.6287 8.52718 33.8559C9.81821 34.0126 10.8928 34.8783 11.3332 36.0573C11.3332 36.0648 11.3406 36.0798 11.3406 36.0872C11.3481 36.0947 11.3481 36.1096 11.3555 36.1171C12.1713 38.2926 10.4954 40.6916 8.12421 40.6916ZM21.1839 30.9379C21.1839 28.5556 23.1222 26.6618 25.46 26.6618C27.8182 26.6618 29.7361 28.5797 29.7361 30.9379C29.7361 33.2962 27.8182 35.2141 25.46 35.2141C23.0712 35.2141 21.1839 33.2601 21.1839 30.9379ZM21.154 28.3708C20.6988 29.1245 20.4376 29.9977 20.4376 30.9379C20.4376 31.4156 20.5048 31.8634 20.6316 32.2961V32.3036C20.5566 32.3309 14.2486 34.6276 14.6466 34.4827V25.7514C15.1093 25.4678 15.5048 25.0872 15.8182 24.6395C24.1665 30.4775 13.0058 22.6768 21.154 28.3634V28.3708ZM13.9003 25.3111C11.718 26.402 8.98986 24.8037 8.98986 22.2215C8.98986 20.3335 10.5272 18.7962 12.4227 18.7962C14.2394 18.7962 15.8481 20.2749 15.8481 22.2215C15.8481 23.6023 15.0469 24.7696 13.9003 25.3111ZM13.9003 26.1245V34.7588L11.9003 35.4902C11.3705 34.3484 10.3331 33.4902 9.07195 33.1992L10.8182 26.0798C11.7715 26.4781 12.877 26.5206 13.9003 26.1245ZM11.2436 40.035C12.1548 39.0099 12.5336 37.5873 12.1615 36.1917L13.9003 35.5499V42.1097C12.9525 41.4902 12.0645 40.8037 11.2436 40.035ZM36.9675 45.7439H29.5197H20.7436H14.6466V43.4306V42.5723V35.2812C14.7215 35.2538 20.962 32.9696 20.8854 32.9977C21.669 34.7439 23.4227 35.9604 25.46 35.9604C28.2287 35.9604 30.4824 33.7067 30.4824 30.9379C30.4824 28.1693 28.2287 25.9156 25.46 25.9156C23.8929 25.9156 22.4973 26.632 21.5794 27.7589C21.5038 27.706 15.8339 23.7402 16.1914 23.9902C16.4526 23.4529 16.5943 22.8559 16.5943 22.2215C16.5943 20.7364 15.8182 19.4304 14.6466 18.6991V15.5798H18.2735H19.0197H30.7063V20.6395C30.7063 20.8485 30.8705 21.0126 31.0794 21.0126H36.9675C36.9675 21.6671 36.9675 46.9682 36.9675 45.7439ZM36.3406 20.2664H31.4525V16.0275L36.3406 20.2664ZM41.3406 41.3709C40.8402 41.3709 37.5344 41.3709 37.7137 41.3709C37.7137 19.356 37.8174 20.5945 37.5944 20.3708C37.5869 20.3708 37.5869 20.3633 37.5869 20.3633L37.5272 20.3111L31.3257 14.923C31.2585 14.8634 31.169 14.8335 31.0794 14.8335H19.0197V11.2066H35.0794V16.2663C35.0794 16.4752 35.2436 16.6394 35.4526 16.6394H41.3406C41.3406 26.0911 41.3406 32.4804 41.3406 41.3709ZM40.7138 15.8931H35.8257V11.6544L40.7138 15.8931ZM42.0869 16.3634C42.0943 16.3335 42.1018 16.3036 42.1018 16.2663C42.1018 16.1469 42.0496 16.0424 41.96 15.9828C41.96 15.9828 41.96 15.9753 41.9525 15.9753L35.6988 10.5499C35.6317 10.4902 35.5421 10.4604 35.4526 10.4604H18.6466C18.4376 10.4604 18.2735 10.6245 18.2735 10.8335V14.8335H14.2735C14.0645 14.8335 13.9003 14.9977 13.9003 15.2066V18.326C13.4376 18.1469 12.9451 18.05 12.4227 18.05C10.1167 18.05 8.2436 19.9231 8.2436 22.2215C8.2436 23.6842 8.99733 24.9753 10.1391 25.7141L8.33315 33.0947C8.26601 33.0872 8.19136 33.0872 8.12421 33.0872C7.52716 33.0872 6.95257 33.2141 6.43764 33.4454C5.22869 30.8409 4.5645 27.9455 4.5645 24.8932C4.5645 13.5499 13.7884 4.32597 25.1317 4.32597C36.4675 4.32597 45.6914 13.5499 45.6914 24.8932C45.6914 29.1992 44.363 33.1992 42.0869 36.5052V16.3634Z" fill="#1E1E1E"/>
<path d="M17.8257 19.4977C20.3217 19.4977 23.2349 19.4977 27.9451 19.4977C28.154 19.4977 28.3182 19.3335 28.3182 19.1245C28.3182 18.9156 28.154 18.7514 27.9451 18.7514C23.4796 18.7514 34.967 18.7514 17.8257 18.7514C17.6167 18.7514 17.4526 18.9156 17.4526 19.1245C17.4526 19.3335 17.6167 19.4977 17.8257 19.4977ZM33.7809 41.826H31.4749C31.3033 41.826 31.1466 41.9454 31.1093 42.1171C31.1018 42.1394 31.1018 42.1693 31.1018 42.1991C31.1018 42.4006 31.2734 42.5722 31.4749 42.5722H33.7809C33.9899 42.5722 34.1541 42.4006 34.1541 42.1991C34.1541 42.1693 34.1541 42.1394 34.1466 42.1171C34.1092 41.9454 33.96 41.826 33.7809 41.826ZM28.5122 41.826C23.6046 41.826 20.3885 41.826 17.8257 41.826C17.6167 41.826 17.4526 41.9902 17.4526 42.1991C17.4526 42.4006 17.6167 42.5722 17.8257 42.5722H28.5122C28.7212 42.5722 28.8854 42.4006 28.8854 42.1991C28.8854 42.1693 28.8854 42.1394 28.8779 42.1171C28.8406 41.9454 28.6914 41.826 28.5122 41.826ZM29.5123 21.7813C23.8946 21.7813 23.3506 21.7813 17.8257 21.7813C17.6167 21.7813 17.4526 21.9529 17.4526 22.1544C17.4526 22.3633 17.6167 22.5276 17.8257 22.5276C23.3342 22.5276 23.8766 22.5276 29.5123 22.5276C29.7212 22.5276 29.8854 22.3633 29.8854 22.1544C29.8854 21.9529 29.7212 21.7813 29.5123 21.7813ZM33.7809 38.7887H22.8929C22.6913 38.7887 22.5197 38.9603 22.5197 39.1618C22.5197 39.3708 22.6913 39.535 22.8929 39.535H33.7809C33.9899 39.535 34.1541 39.3708 34.1541 39.1618C34.1541 38.9603 33.9899 38.7887 33.7809 38.7887ZM17.8257 39.535C18.0682 39.535 20.4651 39.535 20.3332 39.535C20.5347 39.535 20.7063 39.3708 20.7063 39.1618C20.7063 38.9603 20.5347 38.7887 20.3332 38.7887C20.258 38.7887 17.7198 38.7887 17.8257 38.7887C17.6167 38.7887 17.4526 38.9603 17.4526 39.1618C17.4526 39.3708 17.6167 39.535 17.8257 39.535ZM25.46 33.1171C26.6615 33.1171 27.6391 32.1394 27.6391 30.9379C27.6391 29.7365 26.6615 28.7588 25.46 28.7588C24.2585 28.7588 23.2809 29.7365 23.2809 30.9379C23.2809 32.1394 24.2585 33.1171 25.46 33.1171ZM25.46 29.5051C26.2511 29.5051 26.8928 30.1469 26.8928 30.9379C26.8928 31.729 26.2511 32.3708 25.46 32.3708C24.669 32.3708 24.0272 31.729 24.0272 30.9379C24.0272 30.1469 24.669 29.5051 25.46 29.5051ZM12.4227 20.4828C11.46 20.4828 10.6764 21.2663 10.6764 22.2215C10.6764 23.1842 11.46 23.9678 12.4227 23.9678C13.3889 23.9678 14.169 23.1757 14.169 22.2215C14.169 21.2363 13.3518 20.4828 12.4227 20.4828ZM12.4227 23.2215C11.8705 23.2215 11.4227 22.7738 11.4227 22.2215C11.4227 21.6767 11.8705 21.2291 12.4227 21.2291C12.975 21.2291 13.4227 21.6767 13.4227 22.2215C13.4227 22.7738 12.975 23.2215 12.4227 23.2215ZM8.12422 35.5126C7.16256 35.5126 6.37793 36.3086 6.37793 37.2589C6.37793 38.2215 7.1615 39.0052 8.12422 39.0052C9.10492 39.0052 9.87046 38.2062 9.87046 37.2589C9.87046 36.2962 9.08689 35.5126 8.12422 35.5126ZM8.12422 38.2589C7.57194 38.2589 7.12419 37.8111 7.12419 37.2589C7.12419 36.7848 7.48847 36.3175 8.01225 36.2738C8.04956 36.2588 8.08687 36.2588 8.12421 36.2588C8.67644 36.2588 9.12419 36.7141 9.12419 37.2589C9.12419 37.7946 8.68196 38.2589 8.12422 38.2589Z" fill="#1E1E1E"/>
</g>
<defs>
<clipPath id="clip0_103_15">
<rect width="50" height="50" fill="white"/>
</clipPath>
</defs>
</svg>
